# Blender v2.92.0 OBJ File: 'Forest.blendD379C932-11C9-4E09-B687-B4B439D4B66E.blend'
# www.blender.org
mtllib flower.mtl
o f3_Cylinder.042
v -0.322318 0.699663 0.049466
v -0.242816 0.806886 -0.104735
v -0.151097 0.806886 0.077427
v -0.278951 0.837774 0.212364
v -0.477275 0.806886 0.127485
v -0.444403 0.806886 -0.073797
v -0.167362 0.980378 -0.028553
v -0.217283 0.949491 0.181314
v -0.401821 0.980378 0.203667
v -0.493539 0.980378 0.021505
v -0.348636 0.980378 -0.122017
v -0.322318 1.087602 0.049466
v -0.211822 0.562982 -0.141274
v -0.136368 0.874568 -0.065092
v -0.111578 0.541145 -0.143850
v -0.080351 0.612946 -0.112321
v -0.220116 0.709296 -0.118220
v -0.442431 0.709296 -0.084102
v -0.310625 0.495948 -0.163439
v -0.409144 0.495948 -0.148319
v -0.577636 0.682787 0.122138
v -0.532421 0.682787 -0.154724
v -0.606635 0.606419 -0.031228
v -0.596511 0.606419 -0.093221
v -0.351194 0.710305 0.308132
v -0.567696 0.710305 0.196504
v -0.474127 0.649495 0.312620
v -0.552303 0.649495 0.272312
v -0.083066 0.683559 0.147595
v -0.250237 0.683559 0.313173
v -0.105805 0.629692 0.228379
v -0.170383 0.629692 0.292342
v -0.157797 0.741194 0.282303
v -0.050031 0.919384 0.304977
v -0.094697 0.762505 0.296279
v -0.039884 0.853138 0.307811
v -0.464850 0.757249 0.230014
v -0.359545 0.999378 0.336335
v -0.402254 0.817438 0.312516
v -0.365380 0.902224 0.349746
v -0.557437 0.820438 0.278659
v -0.577942 1.039166 0.145047
v -0.593101 0.910909 0.317630
v -0.600750 0.992503 0.267787
v -0.176573 0.994063 -0.150089
v -0.418306 1.161332 -0.028379
v -0.282979 1.066130 -0.220216
v -0.391529 1.141242 -0.165562
v -0.157828 0.976014 0.321442
v -0.288068 1.147268 0.157955
v -0.190860 1.064051 0.372524
v -0.251857 1.144256 0.295956
v -0.458637 1.038591 0.278612
v -0.358032 1.174276 0.083480
v -0.533351 1.203683 0.206192
v -0.502004 1.245960 0.145393
v -0.581590 1.030354 -0.053557
v -0.383676 1.030354 -0.249584
v -0.554755 1.019319 -0.191503
v -0.485333 1.019319 -0.260263
v -0.323724 0.748509 -0.175494
v -0.467728 0.984604 -0.199013
v -0.456022 0.769394 -0.248878
v -0.512995 0.862802 -0.258183
v -0.521033 0.755343 0.023961
v -0.579334 0.961194 0.137038
v -0.659880 0.774937 0.110204
v -0.682678 0.855431 0.154421
v -0.037874 0.753102 -0.012218
v -0.054138 0.926594 -0.118197
v -0.006366 0.673008 -0.093714
v -0.014433 0.759060 -0.146280
v -0.010287 -0.061826 0.001579
v -0.271066 0.878376 0.041600
v -0.000084 -0.061907 -0.041826
v -0.268253 0.881430 0.023579
v 0.037121 -0.062094 -0.064865
v -0.256508 0.888510 0.014491
v 0.079564 -0.062270 -0.054049
v -0.242673 0.895493 0.019654
v 0.102354 -0.062339 -0.015708
v -0.234886 0.898277 0.036048
v 0.092111 -0.062270 0.027702
v -0.237738 0.895208 0.054075
v 0.054864 -0.062094 0.050749
v -0.249552 0.888088 0.063173
v 0.012462 -0.061907 0.039926
v -0.263350 0.881118 0.058005
v 0.016316 0.187091 -0.002504
v -0.027575 0.433357 0.004232
v -0.124545 0.686188 0.019114
v -0.119063 0.689234 -0.005379
v -0.020907 0.434898 -0.026505
v 0.024791 0.187800 -0.039581
v -0.100593 0.695016 -0.018010
v 0.003555 0.438159 -0.042567
v 0.055975 0.189513 -0.059186
v -0.079892 0.700187 -0.011391
v 0.031563 0.441299 -0.034558
v 0.091601 0.191224 -0.049834
v -0.069150 0.701678 0.010612
v 0.046689 0.442460 -0.007165
v 0.110800 0.191933 -0.017004
v -0.074731 0.698566 0.035120
v 0.039994 0.440897 0.023576
v 0.102329 0.191224 0.020072
v -0.093297 0.692721 0.047767
v 0.015417 0.437539 0.039656
v 0.071147 0.189513 0.039676
v -0.113902 0.687613 0.041132
v -0.012564 0.434421 0.031642
v 0.035519 0.187800 0.030325
vn -0.7832 -0.5709 -0.2463
vn -0.4902 -0.2550 -0.8335
vn 0.2136 0.3245 -0.9215
vn 0.6838 0.6252 -0.3762
vn 0.7561 0.6052 0.2490
vn 0.4676 0.3077 0.8287
vn -0.4716 0.8787 0.0748
vn -0.7145 -0.5853 0.3833
vn -0.2361 -0.2626 0.9356
vn -0.0045 -1.0000 0.0004
vn -0.2466 0.0600 0.9673
vn -0.2509 -0.0563 0.9664
vn -0.2581 -0.1403 0.9559
vn -0.8557 0.0998 0.5078
vn -0.8493 -0.1683 0.5004
vn -0.8177 -0.3446 0.4612
vn 0.5262 0.0034 0.8504
vn 0.5238 0.1189 0.8435
vn 0.5185 0.1935 0.8329
vn 0.9728 -0.0323 0.2296
vn 0.9469 0.2336 0.2208
vn 0.8970 0.3861 0.2150
vn 0.8591 -0.0323 -0.5107
vn 0.8371 0.2336 -0.4946
vn 0.7995 0.3887 -0.4579
vn 0.2470 0.0034 -0.9690
vn 0.2468 0.1180 -0.9619
vn 0.2498 0.1925 -0.9490
vn -0.5253 0.0600 -0.8488
vn -0.5293 -0.0550 -0.8467
vn -0.5311 -0.1354 -0.8364
vn -0.9686 0.0998 -0.2278
vn -0.9607 -0.1659 -0.2227
vn -0.9169 -0.3359 -0.2157
vn -0.7879 -0.5749 -0.2205
vn -0.4907 -0.2554 -0.8331
vn 0.1909 0.3103 -0.9313
vn 0.6631 0.6195 -0.4202
vn 0.7608 0.6091 0.2241
vn 0.4605 0.3025 0.8346
vn -0.4715 0.8787 0.0751
vn -0.4717 0.8785 0.0753
vn -0.4718 0.8785 0.0750
vn -0.4718 0.8785 0.0749
vn -0.6956 -0.5799 0.4241
vn -0.2237 -0.2548 0.9408
vn -0.0045 -1.0000 0.0006
vn -0.0044 -1.0000 0.0008
vn -0.0044 -1.0000 0.0010
vn -0.0045 -1.0000 0.0005
vn -0.2561 0.0590 0.9649
vn -0.2689 -0.0576 0.9614
vn -0.2708 -0.1440 0.9518
vn -0.8599 0.0987 0.5008
vn -0.8621 -0.1667 0.4786
vn -0.8359 -0.3457 0.4264
vn 0.5321 0.0040 0.8467
vn 0.5321 0.1196 0.8382
vn 0.5108 0.1910 0.8382
vn 0.9745 -0.0312 0.2221
vn 0.9476 0.2335 0.2182
vn 0.8884 0.3843 0.2511
vn 0.8631 -0.0312 -0.5041
vn 0.8472 0.2326 -0.4777
vn 0.8169 0.3897 -0.4252
vn 0.2537 0.0040 -0.9673
vn 0.2606 0.1190 -0.9581
vn 0.2546 0.1938 -0.9474
vn -0.5336 0.0590 -0.8437
vn -0.5428 -0.0560 -0.8380
vn -0.5302 -0.1351 -0.8371
vn -0.9705 0.0987 -0.2199
vn -0.9620 -0.1655 -0.2170
vn -0.9099 -0.3345 -0.2453
vn 0.5422 -0.7947 -0.2730
vn -0.0921 -0.7947 -0.6000
vn 0.3836 -0.7523 0.5357
vn -0.1704 -0.7288 0.6632
vn -0.5991 -0.7947 -0.0978
vn -0.1490 -0.1876 -0.9709
vn 0.8773 -0.1876 -0.4417
vn 0.6912 -0.1876 0.6979
vn -0.3489 -0.2454 0.9045
vn -0.9694 -0.1876 -0.1583
vn 0.4501 0.1876 -0.8730
vn 0.9343 0.2454 0.2584
vn 0.1490 0.1876 0.9709
vn -0.8773 0.1876 0.4417
vn -0.6912 0.1876 -0.6979
vn 0.2782 0.7947 -0.5396
vn 0.6342 0.7288 0.2581
vn 0.2019 0.7523 0.6272
vn -0.5422 0.7947 0.2730
vn -0.4272 0.7947 -0.4313
vn 0.2446 0.1740 -0.9539
vn 0.0255 0.2316 -0.9725
vn -0.1509 0.1008 -0.9834
vn -0.1463 0.2641 -0.9533
vn -0.7687 0.6271 -0.1255
vn -0.8091 0.5726 -0.1321
vn -0.3747 0.6832 0.6268
vn -0.3253 0.7043 0.6310
vn 0.6377 0.6154 0.4633
vn 0.5580 0.6093 0.5634
vn -0.5511 0.2313 0.8017
vn -0.2189 0.0082 0.9757
vn -0.9230 0.2905 0.2525
vn -0.8321 0.1246 0.5404
vn 0.8447 0.3345 0.4179
vn 0.9301 0.2511 0.2683
vn 0.5843 0.8102 0.0470
vn 0.5654 0.8247 -0.0104
vn -0.8696 -0.2618 0.4185
vn -0.8657 -0.4509 0.2173
vn -0.8379 -0.1381 -0.5280
vn -0.5438 -0.5311 -0.6497
vn 0.2799 0.9175 0.2826
vn -0.0972 0.9904 -0.0981
vn 0.5326 0.2441 -0.8104
vn 0.4995 0.2212 -0.8376
vn -0.8067 0.0922 -0.5837
vn -0.4667 0.3206 -0.8242
vn 0.6772 0.4288 0.5980
vn 0.9639 0.1987 0.1774
vn 0.1195 0.3552 -0.9271
vn 0.3593 0.2398 -0.9019
vn -0.3138 0.7288 0.6086
vn 0.6046 0.5116 0.6105
vn -0.2225 0.3731 0.9007
vn 0.5843 0.8102 0.0469
usemtl GreenLeaves
s off
f 91//1 76//1 92//1
f 92//2 78//2 95//2
f 95//3 80//3 98//3
f 98//4 82//4 101//4
f 82//5 104//5 101//5
f 84//6 107//6 104//6
f 82//7 80//7 76//7
f 88//8 91//8 110//8
f 86//9 110//9 107//9
f 83//10 85//10 87//10
f 85//11 112//11 87//11
f 108//12 112//12 109//12
f 107//13 111//13 108//13
f 87//14 89//14 73//14
f 111//15 89//15 112//15
f 110//16 90//16 111//16
f 83//17 109//17 85//17
f 105//18 109//18 106//18
f 104//19 108//19 105//19
f 81//20 106//20 83//20
f 102//21 106//21 103//21
f 101//22 105//22 102//22
f 100//23 81//23 79//23
f 100//24 102//24 103//24
f 99//25 101//25 102//25
f 97//26 79//26 77//26
f 97//27 99//27 100//27
f 96//28 98//28 99//28
f 94//29 77//29 75//29
f 94//30 96//30 97//30
f 93//31 95//31 96//31
f 89//32 75//32 73//32
f 89//33 93//33 94//33
f 90//34 92//34 93//34
f 91//35 74//35 76//35
f 92//36 76//36 78//36
f 95//37 78//37 80//37
f 98//38 80//38 82//38
f 82//39 84//39 104//39
f 84//40 86//40 107//40
f 78//41 76//41 80//41
f 76//42 74//42 82//42
f 74//43 88//43 84//43
f 88//44 86//44 84//44
f 84//44 82//44 74//44
f 88//45 74//45 91//45
f 86//46 88//46 110//46
f 87//47 73//47 83//47
f 73//48 75//48 79//48
f 75//49 77//49 79//49
f 79//48 81//48 73//48
f 81//50 83//50 73//50
f 85//51 109//51 112//51
f 108//52 111//52 112//52
f 107//53 110//53 111//53
f 87//54 112//54 89//54
f 111//55 90//55 89//55
f 110//56 91//56 90//56
f 83//57 106//57 109//57
f 105//58 108//58 109//58
f 104//59 107//59 108//59
f 81//60 103//60 106//60
f 102//61 105//61 106//61
f 101//62 104//62 105//62
f 100//63 103//63 81//63
f 100//64 99//64 102//64
f 99//65 98//65 101//65
f 97//66 100//66 79//66
f 97//67 96//67 99//67
f 96//68 95//68 98//68
f 94//69 97//69 77//69
f 94//70 93//70 96//70
f 93//71 92//71 95//71
f 89//72 94//72 75//72
f 89//73 90//73 93//73
f 90//74 91//74 92//74
usemtl Material.002
f 1//75 2//75 3//75
f 2//76 1//76 6//76
f 1//77 3//77 4//77
f 1//78 4//78 5//78
f 1//79 5//79 6//79
f 2//80 6//80 11//80
f 3//81 2//81 7//81
f 4//82 3//82 8//82
f 5//83 4//83 9//83
f 6//84 5//84 10//84
f 2//85 11//85 7//85
f 3//86 7//86 8//86
f 4//87 8//87 9//87
f 5//88 9//88 10//88
f 6//89 10//89 11//89
f 7//90 11//90 12//90
f 8//91 7//91 12//91
f 9//92 8//92 12//92
f 10//93 9//93 12//93
f 11//94 10//94 12//94
f 2//95 14//95 13//95
f 14//96 15//96 13//96
f 2//97 18//97 6//97
f 18//98 19//98 20//98
f 6//99 21//99 5//99
f 22//100 23//100 21//100
f 5//101 25//101 4//101
f 26//102 27//102 25//102
f 4//103 29//103 3//103
f 30//104 31//104 29//104
f 8//105 33//105 34//105
f 34//106 35//106 36//106
f 9//107 37//107 38//107
f 38//108 39//108 40//108
f 5//109 42//109 41//109
f 41//110 44//110 43//110
f 12//111 45//111 46//111
f 45//112 48//112 46//112
f 8//113 50//113 12//113
f 49//114 52//114 50//114
f 9//115 54//115 12//115
f 53//116 56//116 54//116
f 11//117 57//117 10//117
f 58//118 59//118 57//118
f 11//119 61//119 62//119
f 62//120 63//120 64//120
f 10//121 65//121 66//121
f 66//122 67//122 68//122
f 7//123 69//123 70//123
f 70//124 71//124 72//124
f 2//125 7//125 14//125
f 14//126 16//126 15//126
f 2//97 17//97 18//97
f 18//98 17//98 19//98
f 6//99 22//99 21//99
f 22//100 24//100 23//100
f 5//127 26//127 25//127
f 26//102 28//102 27//102
f 4//128 30//128 29//128
f 30//104 32//104 31//104
f 8//129 4//129 33//129
f 34//106 33//106 35//106
f 9//107 5//107 37//107
f 38//108 37//108 39//108
f 5//109 10//109 42//109
f 41//110 42//110 44//110
f 12//130 7//130 45//130
f 45//112 47//112 48//112
f 8//113 49//113 50//113
f 49//114 51//114 52//114
f 9//115 53//115 54//115
f 53//116 55//116 56//116
f 11//117 58//117 57//117
f 58//118 60//118 59//118
f 11//119 2//119 61//119
f 62//120 61//120 63//120
f 10//121 6//121 65//121
f 66//122 65//122 67//122
f 7//123 3//123 69//123
f 70//124 69//124 71//124
