# Blender v2.92.0 OBJ File: 'Forest.blendD379C932-11C9-4E09-B687-B4B439D4B66E.blend'
# www.blender.org
mtllib stone2.mtl
o r8_Cube.001
v -1.045709 -0.011476 2.559653
v -1.054488 1.268607 1.030181
v -0.984335 -0.243603 -1.023983
v -0.722392 1.157435 -0.841334
v 1.720340 -0.060803 1.609648
v 1.536413 1.558236 0.734535
v 1.108683 -0.019718 -1.077366
v 1.000359 1.417892 -0.917803
v -1.141241 0.595276 2.003961
v -0.543012 1.823455 0.017755
v -1.225570 0.234598 -0.928262
v -0.987596 -0.019328 0.187048
v 0.459716 1.765091 -0.977103
v 0.942630 0.649461 -1.009005
v 0.624574 0.062463 -1.458504
v 1.329085 1.869555 -0.080225
v 1.498420 0.690695 2.125892
v 2.254359 0.018555 0.022011
v 0.601776 1.706231 1.299503
v 0.735966 0.022154 3.040587
v -0.164213 1.847720 -0.125648
v 0.191620 0.038709 0.112855
v 0.131460 0.673153 2.360753
v 1.920535 1.158741 -0.079795
v 0.097520 0.710555 -1.340307
v -1.306075 0.682042 0.030126
v -1.073043 0.916519 1.507925
v -0.679336 1.494604 -0.520868
v -1.112041 -0.030675 -1.026804
v -1.244231 0.053620 1.786806
v 0.743772 1.549129 -0.968576
v 1.078266 0.336507 -1.067510
v -0.356104 -0.041244 -1.372956
v 1.274494 1.812864 0.201117
v 1.766628 0.350587 1.966353
v 1.473082 -0.012758 -0.651993
v -0.355443 1.360712 1.101183
v 1.282294 -0.060662 2.262577
v -1.065089 0.311082 2.452836
v -0.826786 1.604067 0.426182
v -1.034945 0.609412 -0.863250
v -1.070630 -0.300593 -0.644171
v -0.233525 1.344026 -0.977234
v 1.014510 1.037813 -0.970012
v 0.910598 0.000665 -1.255251
v 0.903400 1.832721 -0.640592
v 1.705942 1.149814 1.393404
v 2.108395 -0.006519 0.608878
v 1.088254 1.655313 0.823036
v -0.308553 -0.116707 3.147440
v -0.372387 1.843573 -0.072106
v 0.419426 1.877492 -0.352482
v 0.083663 1.648799 0.425274
v 0.065401 1.758249 -0.786300
v 0.877348 -0.057143 0.063698
v -0.344769 0.090725 0.217481
v 0.426559 -0.084550 1.646028
v 0.214034 0.082643 -0.695659
v 0.453634 0.476097 2.808908
v 0.457855 1.144884 1.758018
v 0.813992 0.747745 2.453715
v -0.481545 0.578063 2.268148
v 2.135167 0.545337 0.006491
v 1.650643 1.623085 -0.260005
v 1.527508 0.940537 -0.666314
v 1.985406 0.986882 0.569996
v 0.370573 0.492922 -1.477248
v 0.140875 1.024349 -1.226974
v -0.616231 0.401613 -1.123664
v 0.564996 0.693866 -1.140028
v -1.281006 0.372672 0.129028
v -1.073218 1.188002 -0.069349
v -1.370234 0.693855 1.130254
v -1.410885 0.274826 -0.591097
v -1.026306 0.834774 -0.552774
v -1.318041 1.063960 0.785932
v -1.318046 0.442768 1.628259
v 0.692812 1.081041 -1.106592
v -0.437331 0.864690 -1.054798
v -0.424001 0.243331 -1.457212
v 1.916449 1.525078 0.325881
v 1.297264 1.393574 -0.727808
v 1.442860 0.433795 -0.648358
v -0.392680 0.969534 1.613080
v 1.333631 1.177054 1.684343
v 1.165934 0.419800 2.646649
v -0.431531 -0.093323 -0.772481
v -0.606510 -0.014788 2.104151
v 1.143248 -0.215843 1.074850
v 0.459679 1.850787 -0.764407
v 0.543920 1.884115 0.170024
v -0.536516 1.518854 0.492166
v -0.316873 1.617032 -0.622117
v 0.702406 0.037822 -0.670502
v -0.380886 0.261516 2.919900
v 2.137767 0.445544 0.658276
v 0.830718 0.413074 -1.246722
v -1.341857 -0.079454 -0.667587
v -1.144970 0.021072 2.173229
v 1.422877 1.685231 0.471086
v 0.348297 1.682491 0.842414
v 0.575665 -0.026931 2.343077
v -1.255738 0.644566 1.567108
v -0.938814 1.428112 0.729784
v 1.948536 0.005031 1.139424
v 1.991165 0.893813 1.396934
v -1.195542 0.990239 1.146928
v -1.191567 0.376925 2.040548
v 1.936592 1.364437 0.856263
v -0.458124 -0.065987 2.625650
v 1.339225 -0.117871 1.695992
v 0.808072 1.748527 0.559225
v -0.444204 1.430695 0.798275
v 2.100883 0.445506 1.358340
vn -0.5428 -0.7128 -0.4441
vn 0.6080 0.1339 -0.7826
vn 0.8253 -0.4530 0.3371
vn -0.5532 0.3492 0.7563
vn -0.0671 -0.9950 0.0737
vn -0.4004 0.6576 -0.6381
vn 0.1238 0.8358 0.5349
vn -0.2195 0.8819 0.4172
vn -0.1932 0.9101 -0.3667
vn 0.1221 -0.9751 -0.1851
vn -0.0977 -0.9928 -0.0691
vn 0.2682 -0.9621 -0.0498
vn 0.7742 -0.2701 0.5724
vn 0.0094 0.8705 0.4921
vn -0.1730 0.8556 0.4878
vn 0.6818 0.0521 -0.7297
vn 0.7015 0.2668 -0.6608
vn 0.5734 0.6458 0.5042
vn 0.0606 -0.2701 -0.9609
vn -0.3879 0.2804 -0.8780
vn 0.3250 -0.0256 -0.9454
vn -0.9601 -0.2404 -0.1431
vn -0.9946 0.0854 -0.0589
vn -0.7528 0.5425 -0.3729
vn -0.8797 0.3393 -0.3333
vn -0.7372 0.6434 -0.2062
vn -0.8181 0.4476 -0.3611
vn -0.8355 0.4771 0.2728
vn -0.6202 0.7003 0.3535
vn -0.7756 0.6172 -0.1325
vn -0.9687 -0.0352 0.2459
vn -0.8710 0.3677 0.3259
vn -0.9734 -0.2288 -0.0134
vn 0.3877 0.2653 -0.8828
vn 0.1829 0.2427 -0.9527
vn 0.3046 0.2387 -0.9221
vn -0.3702 0.3383 -0.8652
vn -0.3936 0.2597 -0.8818
vn -0.3460 0.2914 -0.8918
vn -0.4055 -0.2549 -0.8778
vn -0.3471 0.1924 -0.9179
vn -0.4652 0.6654 -0.5838
vn 0.8661 0.3753 -0.3302
vn 0.6762 0.6857 0.2694
vn 0.3476 0.8944 0.2814
vn 0.5083 -0.0076 -0.8611
vn 0.5419 0.1341 -0.8297
vn 0.5960 0.6327 -0.4944
vn 0.7562 0.0825 -0.6491
vn 0.6432 0.4007 -0.6525
vn 0.6922 -0.1407 -0.7078
vn -0.2560 0.8237 0.5060
vn -0.3709 0.6427 0.6704
vn -0.1641 0.7895 0.5914
vn 0.4859 0.6720 0.5589
vn 0.2734 0.8475 0.4550
vn 0.4246 0.8375 0.3440
vn 0.7194 -0.4995 0.4827
vn 0.7322 0.2879 0.6172
vn 0.2164 0.6571 0.7221
vn -0.0585 -0.9805 0.1874
vn 0.1587 -0.9731 0.1670
vn 0.2937 -0.9528 -0.0762
vn 0.0101 -0.9949 -0.1005
vn -0.0760 -0.9942 -0.0760
vn -0.0739 -0.9951 -0.0659
vn 0.2586 -0.9634 0.0704
vn -0.0413 -0.9950 0.0911
vn -0.2150 -0.9756 -0.0455
vn -0.1172 0.9779 -0.1732
vn 0.0366 0.9950 -0.0932
vn 0.2223 0.6814 -0.6974
vn 0.0477 0.9529 0.2996
vn 0.1461 0.9230 0.3561
vn 0.0859 0.9733 0.2128
vn -0.0450 0.9563 0.2890
vn -0.3067 0.9444 0.1183
vn -0.1332 0.8753 0.4649
vn -0.3262 0.8413 -0.4311
vn -0.1181 0.9139 -0.3883
vn -0.4910 0.6311 -0.6005
vn 0.0544 -0.9984 -0.0167
vn -0.1444 -0.9851 -0.0930
vn -0.0902 -0.9957 -0.0222
vn 0.0281 0.4682 0.8832
vn -0.1556 0.8582 0.4892
vn -0.2479 0.8558 0.4540
vn 0.9747 0.2214 0.0300
vn 0.9442 0.3294 -0.0071
vn 0.8529 0.1662 0.4948
vn 0.4678 0.2390 -0.8509
vn 0.2865 0.7413 -0.6069
vn 0.3258 0.5893 -0.7393
vn -0.7724 -0.5253 0.3571
vn -0.9834 -0.0220 0.1803
vn -0.8777 -0.0686 -0.4742
vn 0.9613 0.2745 0.0242
vn -0.3635 0.9188 0.1539
vn -0.1523 0.9522 0.2646
vn 0.2611 0.9088 0.3255
vn 0.0348 0.9969 -0.0710
vn -0.0386 -0.9961 0.0790
vn 0.1728 -0.9781 0.1161
vn -0.0841 -0.9938 -0.0725
vn 0.1356 -0.9900 0.0385
vn 0.3608 0.9041 0.2291
vn -0.9096 0.2635 0.3211
vn -0.9678 0.0249 0.2507
vn -0.7584 0.5384 0.3673
vn -0.7719 0.5768 0.2674
vn 0.9918 0.1275 0.0010
vn 0.9527 -0.0935 0.2891
vn -0.8260 -0.4989 -0.2625
vn 0.6705 0.0777 -0.7378
vn 0.8195 -0.4253 0.3841
vn -0.5361 0.2362 0.8104
vn -0.1203 -0.9925 0.0202
vn -0.4247 0.6668 -0.6123
vn 0.1812 0.8287 0.5296
vn -0.0511 0.9987 -0.0005
vn 0.5824 0.7540 -0.3037
vn 0.0540 -0.9981 -0.0292
vn -0.1085 -0.9921 -0.0631
vn 0.1122 -0.9899 0.0866
vn 0.2265 0.5509 0.8033
vn -0.1645 0.8180 0.5512
vn -0.1463 0.8394 0.5235
vn 0.6453 0.1238 -0.7538
vn 0.7718 0.2166 -0.5978
vn 0.5545 0.6254 0.5491
vn -0.0772 -0.0888 -0.9930
vn -0.3562 0.3606 -0.8620
vn 0.3930 0.0196 -0.9194
vn -0.8011 -0.5984 0.0082
vn -0.9039 0.3758 -0.2042
vn -0.7519 0.4637 -0.4686
vn -0.7939 0.5613 -0.2340
vn -0.8029 0.4416 -0.4005
vn -0.8160 0.4784 -0.3245
vn -0.8099 0.4567 0.3681
vn -0.6689 0.7231 0.1723
vn -0.7448 0.6449 -0.1711
vn -0.9568 -0.0662 0.2830
vn -0.8923 0.3586 0.2743
vn -0.9935 -0.0987 -0.0569
vn 0.2117 0.0145 -0.9772
vn 0.2211 0.2536 -0.9417
vn 0.4028 0.1393 -0.9046
vn -0.4006 0.2843 -0.8710
vn -0.3590 0.2959 -0.8852
vn -0.2445 0.4028 -0.8821
vn -0.3946 -0.3462 -0.8512
vn -0.5900 0.5428 -0.5976
vn -0.1454 0.3898 -0.9094
vn 0.9928 0.0935 -0.0744
vn 0.4146 0.9093 -0.0360
vn 0.2720 0.8477 0.4555
vn 0.5248 0.1530 -0.8374
vn 0.4778 0.5626 -0.6747
vn 0.2666 0.7703 -0.5793
vn 0.7469 0.0559 -0.6626
vn 0.5458 -0.1206 -0.8292
vn 0.7815 0.1898 -0.5943
vn -0.2049 0.8522 0.4815
vn -0.2580 0.7766 0.5747
vn -0.1522 0.7984 0.5825
vn 0.3582 0.6912 0.6276
vn 0.3552 0.8565 0.3744
vn 0.0426 0.6255 0.7791
vn 0.6856 -0.3460 0.6405
vn 0.3464 0.7232 0.5974
vn -0.1605 0.8558 0.4917
vn 0.2677 -0.9625 -0.0449
vn 0.3456 -0.8988 0.2696
vn 0.2822 -0.9582 -0.0477
vn -0.0281 -0.9957 0.0883
vn -0.0746 -0.9951 -0.0647
vn 0.1650 -0.9837 0.0713
vn 0.2559 -0.9617 0.0980
vn -0.0452 -0.9845 0.1696
vn -0.1456 -0.9825 -0.1159
vn -0.2232 0.9711 -0.0848
vn 0.0570 0.9966 -0.0590
vn 0.4298 0.5690 -0.7011
vn -0.3752 0.9122 0.1644
vn 0.0815 0.9571 0.2781
vn 0.0135 0.9998 -0.0159
vn 0.1251 0.8377 0.5316
vn -0.1615 0.9343 0.3178
vn 0.0619 0.9473 0.3142
vn -0.3900 0.8369 -0.3841
vn -0.4328 0.8611 -0.2670
vn -0.3594 0.5919 -0.7215
vn -0.0624 -0.9916 -0.1134
vn -0.0884 -0.9945 -0.0565
vn -0.2041 -0.9789 -0.0105
vn -0.0177 0.5129 0.8582
vn -0.2031 0.8681 0.4530
vn -0.1983 0.8126 0.5481
vn 0.9675 -0.0887 0.2368
vn 0.9602 0.2765 0.0385
vn 0.7451 0.3107 0.5902
vn 0.5929 0.1313 -0.7945
vn 0.4286 0.6457 -0.6319
vn 0.6158 0.3944 -0.6821
vn -0.6172 -0.7245 0.3068
vn -0.9520 -0.2293 0.2029
vn -0.8236 -0.1492 -0.5472
vn 0.9711 0.2333 0.0512
vn -0.3041 0.9048 0.2981
vn -0.0667 0.8917 0.4478
vn 0.1293 0.9701 0.2054
vn 0.0427 0.9554 0.2922
vn -0.0365 -0.9946 0.0968
vn 0.1311 -0.9885 -0.0748
vn -0.0853 -0.9944 -0.0618
vn 0.0103 -0.9950 -0.0997
vn 0.3659 0.8945 0.2570
vn -0.9267 0.2592 0.2721
vn -0.9566 -0.0168 0.2908
vn -0.9055 0.4022 -0.1351
vn -0.7337 0.5725 0.3659
vn 0.9924 0.1230 0.0069
vn 0.9361 -0.3483 0.0493
usemtl None
s off
f 29//1 42//1 98//1
f 32//2 45//2 97//2
f 114//3 5//3 105//3
f 95//4 1//4 50//4
f 94//5 7//5 36//5
f 93//6 4//6 28//6
f 92//7 10//7 40//7
f 91//8 21//8 53//8
f 90//9 13//9 54//9
f 55//10 48//10 89//10
f 56//11 57//11 88//11
f 33//12 58//12 87//12
f 86//13 20//13 38//13
f 60//14 61//14 85//14
f 84//15 9//15 62//15
f 63//16 36//16 83//16
f 64//17 65//17 82//17
f 47//18 106//18 109//18
f 67//19 33//19 80//19
f 79//20 25//20 69//20
f 78//21 14//21 70//21
f 77//22 12//22 30//22
f 76//23 26//23 73//23
f 41//24 74//24 75//24
f 75//25 26//25 72//25
f 28//26 72//26 10//26
f 4//27 75//27 28//27
f 107//28 73//28 103//28
f 104//29 76//29 107//29
f 40//30 72//30 76//30
f 108//31 30//31 99//31
f 103//32 77//32 108//32
f 73//33 71//33 77//33
f 68//34 70//34 25//34
f 13//35 78//35 68//35
f 8//36 78//36 31//36
f 41//37 69//37 11//37
f 4//38 79//38 41//38
f 43//39 68//39 79//39
f 29//40 33//40 3//40
f 69//41 29//41 11//41
f 25//42 80//42 69//42
f 81//43 24//43 64//43
f 34//44 64//44 16//44
f 6//45 109//45 100//45
f 44//46 65//46 14//46
f 8//47 82//47 44//47
f 16//48 82//48 46//48
f 32//49 36//49 7//49
f 14//50 83//50 32//50
f 65//51 63//51 83//51
f 84//52 23//52 60//52
f 37//53 60//53 19//53
f 2//54 84//54 37//54
f 85//55 17//55 47//55
f 49//56 47//56 6//56
f 19//57 85//57 49//57
f 35//58 38//58 5//58
f 17//59 86//59 35//59
f 61//60 59//60 86//60
f 87//61 22//61 56//61
f 12//62 87//62 56//62
f 3//63 87//63 42//63
f 88//64 102//64 110//64
f 99//65 88//65 110//65
f 30//66 56//66 88//66
f 89//67 105//67 111//67
f 57//68 111//68 102//68
f 22//69 89//69 57//69
f 52//70 54//70 21//70
f 46//71 52//71 16//71
f 46//72 31//72 90//72
f 91//73 101//73 112//73
f 34//74 112//74 100//74
f 16//75 91//75 34//75
f 92//76 104//76 113//76
f 53//77 113//77 101//77
f 53//78 51//78 92//78
f 51//79 28//79 10//79
f 21//80 93//80 51//80
f 54//81 43//81 93//81
f 55//82 36//82 18//82
f 22//83 94//83 55//83
f 15//84 94//84 58//84
f 59//85 50//85 20//85
f 23//86 95//86 59//86
f 62//87 39//87 95//87
f 96//88 18//88 63//88
f 66//89 63//89 24//89
f 106//90 35//90 114//90
f 97//91 15//91 67//91
f 70//92 67//92 25//92
f 14//93 97//93 70//93
f 98//94 12//94 71//94
f 74//95 71//95 26//95
f 11//96 98//96 74//96
f 106//97 96//97 66//97
f 101//98 37//98 19//98
f 113//99 2//99 37//99
f 100//100 49//100 6//100
f 49//101 101//101 19//101
f 102//102 38//102 20//102
f 111//103 5//103 38//103
f 1//104 110//104 50//104
f 50//105 102//105 20//105
f 100//106 81//106 34//106
f 9//107 108//107 39//107
f 39//108 99//108 1//108
f 2//109 107//109 27//109
f 27//110 103//110 9//110
f 109//111 66//111 81//111
f 96//112 105//112 48//112
f 29//113 3//113 42//113
f 32//114 7//114 45//114
f 114//115 35//115 5//115
f 95//116 39//116 1//116
f 94//117 45//117 7//117
f 93//118 43//118 4//118
f 92//119 51//119 10//119
f 91//120 52//120 21//120
f 90//121 31//121 13//121
f 55//122 18//122 48//122
f 56//123 22//123 57//123
f 33//124 15//124 58//124
f 86//125 59//125 20//125
f 60//126 23//126 61//126
f 84//127 27//127 9//127
f 63//128 18//128 36//128
f 64//129 24//129 65//129
f 47//130 17//130 106//130
f 67//131 15//131 33//131
f 79//132 68//132 25//132
f 78//133 44//133 14//133
f 77//134 71//134 12//134
f 76//135 72//135 26//135
f 41//136 11//136 74//136
f 75//137 74//137 26//137
f 28//138 75//138 72//138
f 4//139 41//139 75//139
f 107//140 76//140 73//140
f 104//141 40//141 76//141
f 40//142 10//142 72//142
f 108//143 77//143 30//143
f 103//144 73//144 77//144
f 73//145 26//145 71//145
f 68//146 78//146 70//146
f 13//147 31//147 78//147
f 8//148 44//148 78//148
f 41//149 79//149 69//149
f 4//150 43//150 79//150
f 43//151 13//151 68//151
f 29//152 80//152 33//152
f 69//153 80//153 29//153
f 25//154 67//154 80//154
f 81//155 66//155 24//155
f 34//156 81//156 64//156
f 6//157 47//157 109//157
f 44//158 82//158 65//158
f 8//159 46//159 82//159
f 16//160 64//160 82//160
f 32//161 83//161 36//161
f 14//162 65//162 83//162
f 65//163 24//163 63//163
f 84//164 62//164 23//164
f 37//165 84//165 60//165
f 2//166 27//166 84//166
f 85//167 61//167 17//167
f 49//168 85//168 47//168
f 19//169 60//169 85//169
f 35//170 86//170 38//170
f 17//171 61//171 86//171
f 61//172 23//172 59//172
f 87//173 58//173 22//173
f 12//174 42//174 87//174
f 3//175 33//175 87//175
f 88//176 57//176 102//176
f 99//177 30//177 88//177
f 30//178 12//178 56//178
f 89//179 48//179 105//179
f 57//180 89//180 111//180
f 22//181 55//181 89//181
f 52//182 90//182 54//182
f 46//183 90//183 52//183
f 46//184 8//184 31//184
f 91//185 53//185 101//185
f 34//186 91//186 112//186
f 16//187 52//187 91//187
f 92//188 40//188 104//188
f 53//189 92//189 113//189
f 53//190 21//190 51//190
f 51//191 93//191 28//191
f 21//192 54//192 93//192
f 54//193 13//193 43//193
f 55//194 94//194 36//194
f 22//195 58//195 94//195
f 15//196 45//196 94//196
f 59//197 95//197 50//197
f 23//198 62//198 95//198
f 62//199 9//199 39//199
f 96//200 48//200 18//200
f 66//201 96//201 63//201
f 106//202 17//202 35//202
f 97//203 45//203 15//203
f 70//204 97//204 67//204
f 14//205 32//205 97//205
f 98//206 42//206 12//206
f 74//207 98//207 71//207
f 11//208 29//208 98//208
f 106//209 114//209 96//209
f 101//210 113//210 37//210
f 113//211 104//211 2//211
f 100//212 112//212 49//212
f 49//213 112//213 101//213
f 102//214 111//214 38//214
f 111//215 105//215 5//215
f 1//216 99//216 110//216
f 50//217 110//217 102//217
f 100//218 109//218 81//218
f 9//219 103//219 108//219
f 39//220 108//220 99//220
f 2//221 104//221 107//221
f 27//222 107//222 103//222
f 109//223 106//223 66//223
f 96//224 114//224 105//224
