# Blender v2.92.0 OBJ File: 'Forest.blendD379C932-11C9-4E09-B687-B4B439D4B66E.blend'
# www.blender.org
mtllib stone1.mtl
o r6_Icosphere.003
v -0.031589 -0.238161 0.196474
v 1.667566 -0.394056 1.338378
v -0.386008 0.135854 1.212351
v -1.600224 0.173325 0.087435
v -0.362863 0.504169 -0.919819
v 0.858290 0.159428 -0.585663
v 0.443244 1.035730 1.543272
v -1.180180 1.527425 0.865719
v -0.824394 1.552133 -0.597989
v 0.147975 1.583489 -1.055573
v 1.385855 1.001975 0.685672
v -0.124586 2.147026 0.000062
v -0.233623 -0.242373 0.818085
v 0.918988 -0.442715 0.789883
v 0.854815 -0.379674 1.500737
v 1.545043 -0.208576 0.526225
v 0.548975 -0.127817 -0.235116
v -0.956360 -0.125525 0.144867
v -1.176673 0.149765 0.719381
v -0.274331 0.042175 -0.418621
v -0.969327 0.324213 -0.434144
v 0.229638 0.365371 -0.888243
v 1.989438 0.014702 1.303797
v 1.380453 0.536306 0.009706
v 0.224978 0.434894 1.536648
v 1.355379 0.105335 1.763874
v -1.423230 0.847674 0.512955
v -0.905667 0.792268 1.105913
v -0.683662 1.005379 -0.928080
v -1.205968 0.904353 -0.268478
v 0.541017 0.952692 -0.894713
v -0.093350 0.942140 -1.352760
v 0.950828 1.073878 1.491283
v -0.454780 1.374652 1.143520
v -1.048801 1.583466 0.059933
v -0.380451 1.687405 -1.002728
v 0.632275 1.566465 -0.429875
v 0.143412 1.721028 0.815284
v 0.499842 1.825281 0.192409
v -0.594685 1.917541 0.414108
v -0.541996 2.037557 -0.411628
v 0.010075 2.098834 -0.614870
vn -0.1724 -0.9830 -0.0627
vn 0.2447 -0.9366 -0.2508
vn -0.1183 -0.9920 -0.0452
vn -0.0906 -0.9192 -0.3832
vn -0.1058 -0.9199 -0.3775
vn 0.7496 -0.6117 -0.2528
vn -0.3310 -0.2955 0.8962
vn -0.8259 -0.1295 0.5487
vn -0.5215 -0.3466 -0.7797
vn 0.3689 -0.2056 -0.9064
vn 0.5192 -0.3426 0.7830
vn -0.3968 -0.1678 0.9024
vn -0.8992 0.3765 -0.2227
vn -0.5675 -0.3753 -0.7329
vn 0.7404 0.0346 -0.6713
vn 0.0149 0.7311 0.6821
vn -0.0638 0.7947 0.6037
vn -0.7742 0.5621 -0.2909
vn 0.0541 0.6573 -0.7517
vn 0.7136 0.6876 -0.1341
vn 0.4508 0.8922 0.0288
vn 0.6688 0.7261 -0.1597
vn 0.6473 0.5880 -0.4850
vn -0.1495 0.9827 -0.1097
vn -0.2881 0.7873 -0.5451
vn -0.6415 0.5702 -0.5131
vn -0.3543 0.9284 0.1123
vn -0.6272 0.7755 0.0727
vn -0.5735 0.8184 -0.0366
vn -0.0191 0.8835 0.4680
vn -0.1212 0.7850 0.6075
vn -0.0367 0.7201 0.6929
vn 0.3445 0.8738 0.3434
vn 0.3808 0.8515 0.3604
vn 0.5829 0.7745 0.2457
vn 0.8258 0.4613 -0.3244
vn 0.7636 0.3138 -0.5643
vn 0.7527 0.3227 -0.5738
vn -0.0075 0.4227 -0.9062
vn -0.5647 0.1625 -0.8091
vn -0.6930 0.2334 -0.6821
vn -0.8789 0.3566 -0.3168
vn -0.9172 0.3242 -0.2315
vn -0.9129 0.3896 -0.1217
vn -0.3171 0.1855 0.9301
vn -0.3022 0.1735 0.9373
vn -0.3647 0.1223 0.9230
vn 0.0750 0.2990 0.9513
vn 0.5689 0.4342 0.6985
vn 0.7036 0.6327 0.3235
vn 0.5767 0.1547 -0.8022
vn 0.5607 -0.3057 -0.7695
vn -0.1155 -0.6615 -0.7410
vn -0.7857 0.1587 -0.5979
vn -0.7669 -0.1336 -0.6277
vn -0.6316 -0.0365 -0.7745
vn -0.7548 -0.0687 0.6524
vn -0.7547 -0.0738 0.6519
vn -0.5123 -0.2736 0.8140
vn -0.1813 0.0550 0.9819
vn -0.2583 -0.2410 0.9355
vn 0.1488 -0.5858 0.7967
vn 0.8876 0.3760 -0.2661
vn 0.8765 -0.1282 -0.4641
vn 0.7976 -0.2146 -0.5637
vn 0.0370 -0.7887 -0.6137
vn -0.0345 -0.8056 -0.5915
vn -0.1384 -0.7403 -0.6579
vn -0.2822 -0.7297 -0.6228
vn -0.2946 -0.7579 -0.5821
vn -0.2994 -0.7568 -0.5811
vn -0.4258 -0.8687 0.2530
vn -0.3936 -0.8787 0.2701
vn -0.3662 -0.7382 0.5666
vn 0.2763 -0.8484 -0.4515
vn 0.1944 -0.9158 -0.3515
vn -0.0290 -0.9584 -0.2840
vn -0.4272 -0.7293 0.5345
vn -0.1691 -0.9830 0.0719
vn 0.0000 -0.9961 0.0883
usemtl None
s off
f 1//1 14//1 13//1
f 2//2 14//2 16//2
f 1//3 13//3 18//3
f 1//4 18//4 20//4
f 1//5 20//5 17//5
f 2//6 16//6 23//6
f 3//7 15//7 25//7
f 4//8 19//8 27//8
f 5//9 21//9 29//9
f 6//10 22//10 31//10
f 2//11 23//11 26//11
f 3//12 25//12 28//12
f 4//13 27//13 30//13
f 5//14 29//14 32//14
f 6//15 31//15 24//15
f 7//16 33//16 38//16
f 8//17 34//17 40//17
f 9//18 35//18 41//18
f 10//19 36//19 42//19
f 11//20 37//20 39//20
f 39//21 42//21 12//21
f 39//22 37//22 42//22
f 37//23 10//23 42//23
f 42//24 41//24 12//24
f 42//25 36//25 41//25
f 36//26 9//26 41//26
f 41//27 40//27 12//27
f 41//28 35//28 40//28
f 35//29 8//29 40//29
f 40//30 38//30 12//30
f 40//31 34//31 38//31
f 34//32 7//32 38//32
f 38//33 39//33 12//33
f 38//34 33//34 39//34
f 33//35 11//35 39//35
f 24//36 37//36 11//36
f 24//37 31//37 37//37
f 31//38 10//38 37//38
f 32//39 36//39 10//39
f 32//40 29//40 36//40
f 29//41 9//41 36//41
f 30//42 35//42 9//42
f 30//43 27//43 35//43
f 27//44 8//44 35//44
f 28//45 34//45 8//45
f 28//46 25//46 34//46
f 25//47 7//47 34//47
f 26//48 33//48 7//48
f 26//49 23//49 33//49
f 23//50 11//50 33//50
f 31//51 32//51 10//51
f 31//52 22//52 32//52
f 22//53 5//53 32//53
f 29//54 30//54 9//54
f 29//55 21//55 30//55
f 21//56 4//56 30//56
f 27//57 28//57 8//57
f 27//58 19//58 28//58
f 19//59 3//59 28//59
f 25//60 26//60 7//60
f 25//61 15//61 26//61
f 15//62 2//62 26//62
f 23//63 24//63 11//63
f 23//64 16//64 24//64
f 16//65 6//65 24//65
f 17//66 22//66 6//66
f 17//67 20//67 22//67
f 20//68 5//68 22//68
f 20//69 21//69 5//69
f 20//70 18//70 21//70
f 18//71 4//71 21//71
f 18//72 19//72 4//72
f 18//73 13//73 19//73
f 13//74 3//74 19//74
f 16//75 17//75 6//75
f 16//76 14//76 17//76
f 14//77 1//77 17//77
f 13//78 15//78 3//78
f 13//79 14//79 15//79
f 14//80 2//80 15//80
